<?xml version="1.0" encoding="UTF-8"?>
<svg id="Layer_2" data-name="Layer 2" xmlns="http://www.w3.org/2000/svg" viewBox="0 0 248.38 424.06">
  <g id="Layer_1-2" data-name="Layer 1">
    <path d="M248.38,213.23c-1.66-21.63-2.5-43.18-.61-64.82l-99.35,18.77c5.43-6.54,11.47-12.64,16.6-19.44,14.28-18.95,24.4-41.56,29.45-64.76.31-1.46.22-3.66.6-5.46,1.02-3.96,1.02-8,0-12.11-2.36-13.94-5.33-25.38-13.93-36.96-.4-2.36-3.72-5.03-6.06-6.66-.26-.27-.36-.97-.61-1.21-.19-2.01-1-2.62-2.42-1.82-.21-.19-.39-.42-.61-.61-.13-1.64-2.54-3.54-4.24-3.63-28.39-21.15-64.52-18.73-90.87,4.24-1.32-.17-2.47,1.22-2.42,2.42-.19.05-.42-.04-.61,0-1.21.93-2.35,2-3.43,3.22l-.2,1.02c-9.38,10.32-15.74,26.08-16.36,39.99-.82,18.3,4.54,35.44,12.01,51.9,8.57,18.91,20.56,34.77,34.64,49.87L.61,148.41c1.88,21.6,1.17,43.21-.61,64.82l107.22-19.99-26.04,230.82c7.55-.66,15.15-1.94,22.72-2.42,13-.83,27.61-.82,40.58,0,7.57.48,15.17,1.76,22.72,2.42l-26.04-230.82,107.22,19.99ZM124.41,155.02c-1.13.2-10.01-10.93-11.38-12.72-12.15-16.02-35.23-53.52-33.59-73.48,1.62-19.75,18.63-38.56,38.56-40.81,25.72-2.9,49.52,15.74,51.04,41.92,1.07,18.35-18.62,50.8-29.21,65.94-1.78,2.55-13.84,18.88-15.42,19.15Z"/>
  </g>
</svg>