<?xml version="1.0" encoding="UTF-8"?>
<svg id="Layer_2" data-name="Layer 2" xmlns="http://www.w3.org/2000/svg" viewBox="0 0 98.65 109.61">
  <defs>
    <style>
      .cls-1 {
        fill: none;
        stroke: #000;
        stroke-miterlimit: 10;
      }
    </style>
  </defs>
  <g id="Layer_1-2" data-name="Layer 1">
    <path class="cls-1" d="M32.58,105.86c-2.79-6.1,12.1-2.43,18.19-47.58,0,0-21.59,50.98-38.58,12.14,0,0-19.91-12.35-7.77-22.44,13.07-4.8,38.48-1.87,38.48-1.87,0,0-57.41-10.16-25.85-31.04h6.31S22.39.5,33.07.5s17.44,25.73,17.7,38.36c0,0,9.97-54.87,30.37-27.19,0,0,17.48.97,16.99,8.74s-13.25,19.98-36.9,25.25c0,0,36.44-2.43,36.91,14.08s-15.55,14.57-15.55,14.57c0,0-4.86,19.42-21.36,10.2,0,0-4.86-5.34-3.88-15.54,0,0-17.08,53.68-24.76,36.9Z"/>
  </g>
</svg>